<svg xmlns="http://www.w3.org/2000/svg" width="24" height="24" viewBox="0 0 20 20">
  <path fill="#000" d="M5.809,20.583a1.112,1.112,0,0,1,-1.109,-1.111v-8.6l9.615,-2.577h1.563a1.111,1.111,0,0,1,1.109,1.105v10.072a1.112,1.112,0,0,1,-1.111,1.111zm1.962,-3.073h6.142v-1.536h-6.142zm4.607,-4.223a1.152,1.152,0,1,0,1.152,-1.153a1.153,1.153,0,0,0,-1.152,1.153zm-5.378,0a1.152,1.152,0,1,0,1.153,-1.153a1.153,1.153,0,0,0,-1.153,1.153zm-4.3,-3.318l-0.01,-0.037a0.634,0.634,0,0,1,0.447,-0.775l0.325,-0.087a5.164,5.164,0,0,1,1.338,-4.976l0.32,1.186a0.646,0.646,0,1,0,1.248,-0.334l-0.455,-1.7a5.308,5.308,0,0,1,1.2,-0.509a5.281,5.281,0,0,1,1.295,-0.159l0.455,1.7a0.646,0.646,0,1,0,1.248,-0.334l-0.316,-1.187a5.163,5.163,0,0,1,3.65,3.637l0.337,-0.09a0.634,0.634,0,0,1,0.776,0.447l0.006,0.025a0.634,0.634,0,0,1,-0.448,0.776l-10.647,2.848a0.633,0.633,0,0,1,-0.769,-0.431z"/>
</svg>
